<svg width="36" height="36" viewBox="0 0 36 36" fill="none" xmlns="http://www.w3.org/2000/svg">
<g clip-path="url(#clip0_21709_318)">
<path d="M21.375 11.25C21.375 10.9516 21.4935 10.6655 21.7045 10.4545C21.9155 10.2435 22.2016 10.125 22.5 10.125H34.875C35.1734 10.125 35.4595 10.2435 35.6705 10.4545C35.8815 10.6655 36 10.9516 36 11.25C36 11.5483 35.8815 11.8345 35.6705 12.0455C35.4595 12.2564 35.1734 12.375 34.875 12.375H22.5C22.2016 12.375 21.9155 12.2564 21.7045 12.0455C21.4935 11.8345 21.375 11.5483 21.375 11.25ZM34.875 16.875H22.5C22.2016 16.875 21.9155 16.9935 21.7045 17.2045C21.4935 17.4155 21.375 17.7016 21.375 18C21.375 18.2983 21.4935 18.5845 21.7045 18.7955C21.9155 19.0064 22.2016 19.125 22.5 19.125H34.875C35.1734 19.125 35.4595 19.0064 35.6705 18.7955C35.8815 18.5845 36 18.2983 36 18C36 17.7016 35.8815 17.4155 35.6705 17.2045C35.4595 16.9935 35.1734 16.875 34.875 16.875ZM34.875 23.625H25.875C25.5766 23.625 25.2905 23.7435 25.0795 23.9545C24.8685 24.1655 24.75 24.4516 24.75 24.75C24.75 25.0483 24.8685 25.3345 25.0795 25.5455C25.2905 25.7564 25.5766 25.875 25.875 25.875H34.875C35.1734 25.875 35.4595 25.7564 35.6705 25.5455C35.8815 25.3345 36 25.0483 36 24.75C36 24.4516 35.8815 24.1655 35.6705 23.9545C35.4595 23.7435 35.1734 23.625 34.875 23.625ZM21.3398 26.7187C21.3766 26.8618 21.3848 27.0108 21.364 27.1571C21.3432 27.3034 21.2938 27.4442 21.2186 27.5714C21.1434 27.6986 21.0438 27.8097 20.9257 27.8984C20.8075 27.9871 20.673 28.0517 20.5299 28.0884C20.4382 28.1131 20.3436 28.1254 20.2486 28.125C19.9991 28.1251 19.7566 28.0423 19.5593 27.8895C19.362 27.7368 19.2211 27.5228 19.1588 27.2812C18.2925 23.9147 14.8922 21.375 11.2486 21.375C7.60501 21.375 4.20469 23.9133 3.33844 27.2812C3.26385 27.5703 3.07749 27.8178 2.82036 27.9695C2.56323 28.1211 2.25639 28.1644 1.96735 28.0898C1.6783 28.0152 1.43073 27.8289 1.27909 27.5717C1.12745 27.3146 1.08416 27.0078 1.15876 26.7187C1.94485 23.6658 4.23001 21.1936 7.12969 19.9687C6.01318 19.1087 5.19383 17.9209 4.78658 16.5717C4.37932 15.2225 4.40458 13.7797 4.8588 12.4455C5.31303 11.1114 6.17345 9.95296 7.31938 9.13259C8.46531 8.31221 9.83928 7.87109 11.2486 7.87109C12.6579 7.87109 14.0319 8.31221 15.1778 9.13259C16.3238 9.95296 17.1842 11.1114 17.6384 12.4455C18.0926 13.7797 18.1179 15.2225 17.7106 16.5717C17.3034 17.9209 16.484 19.1087 15.3675 19.9687C18.2686 21.1936 20.5538 23.6658 21.3398 26.7187ZM11.25 19.125C12.14 19.125 13.0101 18.8611 13.7501 18.3666C14.4901 17.8721 15.0669 17.1693 15.4075 16.347C15.7481 15.5248 15.8372 14.62 15.6635 13.7471C15.4899 12.8741 15.0613 12.0723 14.432 11.443C13.8027 10.8137 13.0008 10.3851 12.1279 10.2114C11.255 10.0378 10.3502 10.1269 9.52793 10.4675C8.70566 10.8081 8.00286 11.3849 7.50839 12.1249C7.01393 12.8649 6.75001 13.735 6.75001 14.625C6.75001 15.8184 7.22411 16.963 8.06802 17.807C8.91194 18.6509 10.0565 19.125 11.25 19.125Z" fill="#F8FAFC"/>
</g>
<defs>
<clipPath id="clip0_21709_318">
<rect width="36" height="36" fill="white"/>
</clipPath>
</defs>
</svg>
