<svg width="30" height="41" viewBox="0 0 30 41" fill="none" xmlns="http://www.w3.org/2000/svg">
<path d="M13.4443 3.81836C20.3172 3.81836 25.8887 9.38982 25.8887 16.2627V23.1299C19.9639 24.5338 15.5559 29.858 15.5557 36.2119V39.918H1V16.2627C1 9.38985 6.57151 3.81842 13.4443 3.81836Z" fill="#1E81B2"/>
<ellipse cx="13.445" cy="5.71797" rx="4.14815" ry="3.8" fill="#F8E38F"/>
<path d="M17.2578 35.9646C17.2578 29.4797 22.5149 24.2227 28.9997 24.2227V35.9183C28.9997 38.1274 27.2089 39.9183 24.9997 39.9183H17.2578V35.9646Z" fill="#52B4DE"/>
<path d="M13.8996 2.08416C14.0897 2.09195 14.3326 2.06293 14.5144 2.12732C14.5169 2.12821 14.5195 2.1291 14.522 2.12999C14.5955 2.15601 14.6689 2.18983 14.7541 2.23395C14.765 2.23957 14.776 2.24543 14.7874 2.25144C14.8879 2.30501 15.0084 2.37297 15.1636 2.47167C15.6782 2.80049 16.067 3.04711 16.1984 3.12974C16.4517 3.29378 16.6792 3.53491 16.9079 3.90978C16.9287 3.94415 16.9492 3.97985 16.9697 4.01673C16.9865 4.04677 16.9648 4.09018 16.9218 4.11364C16.8788 4.13707 16.8317 4.13301 16.816 4.1047C16.7968 4.07039 16.7776 4.03731 16.7584 4.00539C16.7584 4.00524 16.7583 4.0051 16.7582 4.00495C16.5398 3.64656 16.3277 3.42277 16.0921 3.27122C15.9638 3.1912 15.5858 2.95341 15.0867 2.63015C14.9381 2.53441 14.8224 2.46838 14.7263 2.41638C14.7158 2.41072 14.7056 2.40519 14.6955 2.39992C14.6953 2.39978 14.6951 2.39965 14.6948 2.39952C14.6131 2.35665 14.5464 2.32534 14.4794 2.30126C14.478 2.30079 14.4765 2.30032 14.4751 2.29985C14.3002 2.2369 14.073 2.26884 13.8974 2.2613C13.8914 2.26101 13.8856 2.2595 13.8801 2.25694C13.8456 2.24505 13.8206 2.21022 13.821 2.16995C13.8214 2.13035 13.8462 2.09764 13.8801 2.0874C13.8863 2.085 13.8928 2.08386 13.8996 2.08416ZM12.0953 9.83575C11.8728 9.85428 11.5937 9.76213 11.3731 9.63708C11.1492 9.51248 10.9763 9.35494 10.9028 9.27357C10.8305 9.19395 10.7408 9.12483 10.6345 9.04112C10.6102 9.02193 10.5851 9.002 10.5593 8.98103C10.4743 8.91178 10.3824 8.8312 10.2929 8.73158C9.96675 8.36412 9.79045 8.10546 9.66077 7.92149C9.63453 7.88343 9.61039 7.84777 9.58826 7.81405C9.58822 7.81399 9.58819 7.81393 9.58815 7.81387C9.50495 7.6867 9.4486 7.58708 9.42051 7.48491C9.37156 7.30334 9.34367 7.15173 9.34529 6.96477C9.34577 6.70805 9.26527 6.38721 9.18311 6.16931C9.17847 6.1574 9.17365 6.14518 9.16894 6.13276C9.12764 6.02377 9.08309 5.89402 9.05136 5.71875C9.03733 5.64012 9.02602 5.55431 9.02008 5.45677C9.00419 5.19501 9.04607 4.96804 9.1019 4.77515C9.11788 4.72001 9.13515 4.66757 9.15245 4.61784C9.19612 4.49249 9.24112 4.38268 9.27763 4.27706C9.51259 3.62112 9.8139 3.32169 10.0049 3.16376C10.1574 3.04287 10.2666 3.00369 10.3438 2.97609C10.3672 2.96784 10.388 2.96093 10.4065 2.9535C10.572 2.88781 10.7047 2.81533 10.869 2.74001C10.9055 2.72342 10.9436 2.70682 10.9837 2.69059C11.1178 2.63661 11.2049 2.58079 11.2714 2.52996C11.3005 2.50785 11.3254 2.48709 11.3492 2.46756C11.3496 2.46718 11.35 2.4668 11.3505 2.46642C11.3538 2.4637 11.3571 2.46107 11.3604 2.45841C11.3629 2.4564 11.3653 2.45424 11.3678 2.45224C11.3685 2.4509 11.3692 2.44989 11.3697 2.44907C11.3701 2.44842 11.3704 2.44794 11.3706 2.44762C11.3707 2.44753 11.3707 2.44744 11.3707 2.44735C11.3745 2.44165 11.3784 2.43818 11.3792 2.43746C11.3806 2.4362 11.382 2.43528 11.3827 2.43477C11.3862 2.43209 11.3911 2.42918 11.3943 2.42731C11.4027 2.4225 11.4174 2.41442 11.4404 2.40264C11.4596 2.3907 11.4773 2.37765 11.4998 2.36145C11.5012 2.36041 11.5026 2.35938 11.504 2.35835C11.5259 2.34259 11.5519 2.32437 11.5856 2.30373C11.6162 2.2849 11.6596 2.30528 11.6817 2.34886C11.7037 2.39246 11.6975 2.44197 11.6685 2.45991C11.6385 2.47852 11.6153 2.49495 11.5944 2.51009C11.5931 2.51107 11.5918 2.51205 11.5905 2.51303C11.5687 2.52884 11.5484 2.54395 11.5255 2.55808C11.5179 2.56281 11.5099 2.56748 11.5024 2.57173C11.4894 2.58041 11.4752 2.59152 11.4585 2.60518C11.4551 2.60792 11.4516 2.61065 11.4481 2.61356C11.4255 2.63226 11.3995 2.65425 11.3696 2.67723C11.2992 2.73137 11.2075 2.78976 11.068 2.84502C11.0314 2.85962 10.9962 2.87474 10.9619 2.89008C10.8041 2.96127 10.6677 3.03465 10.4983 3.1007C10.4751 3.10984 10.4516 3.1176 10.4265 3.12631C10.3526 3.15248 10.2624 3.1843 10.127 3.29068C9.95258 3.43404 9.66867 3.71177 9.4452 4.33489C9.40854 4.44081 9.36255 4.55256 9.32008 4.67445C9.30384 4.72105 9.28823 4.76939 9.27381 4.81888C9.22102 5.00031 9.18224 5.21031 9.19727 5.45211C9.20353 5.55264 9.21585 5.63956 9.23103 5.71875C9.26081 5.87205 9.30094 5.98757 9.339 6.0867C9.34105 6.09187 9.3431 6.09701 9.34518 6.10223C9.34769 6.10869 9.3502 6.1151 9.3527 6.12143C9.43752 6.34386 9.51982 6.66744 9.51752 6.93961C9.5151 7.11138 9.53965 7.2503 9.58559 7.42349C9.60875 7.50867 9.65456 7.59028 9.73206 7.70966C9.75394 7.74319 9.77834 7.77978 9.806 7.81992C9.93214 7.999 10.1031 8.2499 10.4179 8.60632C10.5007 8.69885 10.5846 8.77277 10.6654 8.83883C10.6905 8.85935 10.7153 8.87921 10.7397 8.89856C10.8417 8.97925 10.9376 9.05267 11.0176 9.14143C11.083 9.21442 11.2427 9.36177 11.4513 9.47845C11.66 9.59704 11.9077 9.67564 12.0957 9.65961C12.1153 9.65803 12.1349 9.65642 12.1545 9.65461C12.3228 9.63921 12.4913 9.61122 12.6261 9.53766C12.7478 9.44217 12.8758 9.37168 13.0098 9.3159C13.2755 9.23125 13.5746 9.19747 13.8801 9.18975C14.256 9.17869 14.6487 9.16925 14.9533 9.08806C14.9612 9.08599 14.9692 9.0839 14.9771 9.08178C15.6771 8.89201 16.0923 8.52254 16.2243 8.40789C16.2306 8.4023 16.2363 8.39719 16.2414 8.39259C16.2459 8.38849 16.25 8.3847 16.2536 8.38142C16.3081 8.33216 16.3509 8.28279 16.3942 8.2302C16.3966 8.22732 16.3989 8.22444 16.4013 8.22156C16.4468 8.16579 16.4933 8.10669 16.5518 8.04036C16.7694 7.79273 16.9059 7.55866 17.0055 7.35103C17.0239 7.31251 17.0412 7.27472 17.0572 7.2376C17.0573 7.2375 17.0574 7.23739 17.0574 7.23728C17.1277 7.0744 17.1779 6.92583 17.223 6.78439C17.3043 6.52566 17.3231 6.342 17.3312 6.20032C17.3335 6.15586 17.3344 6.11471 17.3347 6.07579C17.335 5.99256 17.3328 5.91864 17.333 5.84415C17.3331 5.8016 17.3318 5.75985 17.3292 5.71875C17.3233 5.62366 17.3112 5.53489 17.2961 5.44711C17.2941 5.43595 17.2923 5.42482 17.2902 5.41374C17.2655 5.27835 17.2342 5.14709 17.2047 5.00874C17.1978 4.97661 17.2304 4.94113 17.2779 4.92928C17.3253 4.91748 17.3703 4.93531 17.3776 4.96936C17.4079 5.11085 17.4397 5.24546 17.4655 5.38781C17.4677 5.39951 17.4698 5.41128 17.4719 5.42311C17.4879 5.51742 17.5008 5.61442 17.5068 5.71875C17.5091 5.76011 17.5104 5.80216 17.5102 5.84498C17.51 5.92042 17.5121 5.99374 17.5117 6.0795C17.5114 6.12061 17.5104 6.16527 17.5078 6.21446C17.499 6.36551 17.4789 6.56106 17.3928 6.83571C17.346 6.98265 17.2938 7.1367 17.2201 7.30775C17.2031 7.34695 17.1849 7.38714 17.1654 7.42808C17.0605 7.64671 16.9164 7.89372 16.687 8.15528C16.6289 8.22112 16.5826 8.27982 16.535 8.338C16.5323 8.34125 16.5296 8.34449 16.5269 8.34772C16.4818 8.40233 16.4344 8.45704 16.3741 8.51167C16.366 8.51896 16.3556 8.52819 16.3431 8.53929C16.2044 8.65981 15.7676 9.04935 15.0299 9.25088C15.0276 9.25147 15.0253 9.25206 15.0231 9.25264C14.5305 9.37981 14.2452 9.37668 14.0314 9.43273C13.9775 9.44588 13.9272 9.45512 13.8801 9.46159C13.7536 9.47545 13.6488 9.48048 13.5576 9.48336C13.5321 9.48416 13.508 9.48493 13.485 9.48554C13.3856 9.48818 13.3071 9.49029 13.2286 9.50258C13.1494 9.51496 13.0778 9.52998 13.0098 9.5487C12.8987 9.58601 12.7985 9.63445 12.6768 9.7006C12.5225 9.78499 12.3283 9.81574 12.1566 9.83075C12.1563 9.83077 12.1561 9.83079 12.1558 9.83081C12.1353 9.83262 12.1151 9.83421 12.0953 9.83575ZM12.0425 2.02557C12.0788 2.01761 12.117 2.05034 12.1281 2.09794C12.1391 2.14562 12.1203 2.1898 12.086 2.1973C12.0036 2.21522 11.9224 2.23586 11.8413 2.25954C11.8075 2.26938 11.7672 2.24064 11.7509 2.19453C11.7347 2.14839 11.7502 2.10178 11.7859 2.09126C11.871 2.06629 11.9561 2.04451 12.0425 2.02557ZM12.1074 10.7372C12.058 10.7385 12.0167 10.6987 12.0157 10.6496C12.0147 10.6005 12.0528 10.5606 12.1002 10.5594C12.1254 10.5587 12.1669 10.5567 12.2226 10.5527C12.3847 10.541 12.6687 10.5127 13.0098 10.4426C13.2652 10.3905 13.5612 10.336 13.8801 10.2891C14.1758 10.2441 14.4821 10.1771 14.7844 10.0919C14.8722 10.0672 14.9492 10.0421 15.0222 10.0164C15.3335 9.89917 15.5443 9.71399 16.0727 9.41706C17.3588 8.68111 18.283 7.26132 18.3077 5.71875C18.3412 4.60582 17.8926 3.47594 17.085 2.71738C16.5363 2.19685 15.8878 1.79782 15.1745 1.57223C14.8381 1.46104 14.3237 1.33974 13.8801 1.31723C13.5217 1.29659 13.2188 1.27751 13.0924 1.27351C13.0463 1.27205 13.0093 1.23114 13.0098 1.18221C13.0103 1.1333 13.048 1.09492 13.0941 1.09637C13.2198 1.10034 13.5222 1.11944 13.8801 1.14008C14.3389 1.16235 14.8722 1.28631 15.2208 1.40089C15.9625 1.63409 16.6368 2.04776 17.2065 2.5879C18.0467 3.37721 18.5557 4.53543 18.5672 5.71875C18.6091 7.34702 17.6801 8.95036 16.2698 9.756C15.6914 10.08 15.3994 10.063 15.0819 10.1834C15.0056 10.2102 14.9254 10.2365 14.8332 10.2624C14.5139 10.3525 14.1908 10.4224 13.8801 10.4685C13.56 10.5162 13.2639 10.5714 13.0098 10.6238C12.6781 10.6902 12.402 10.718 12.2391 10.73C12.1797 10.7343 12.1349 10.7365 12.1074 10.7372ZM10.0528 9.78093C9.60001 9.47708 9.06308 8.89674 8.7392 8.30632C8.57748 8.02088 8.4584 7.74033 8.37491 7.51255C8.24657 7.15815 8.23251 6.91539 8.22708 6.68165C8.22703 6.67914 8.22697 6.67664 8.22692 6.67414C8.22489 6.43973 8.2297 6.21025 8.22491 5.8427C8.22461 5.80306 8.22434 5.7617 8.22428 5.71875C8.2224 5.36203 8.24263 4.90013 8.34238 4.44166C8.34249 4.44126 8.3426 4.44087 8.34271 4.44047C8.44768 3.93344 8.57899 3.39127 8.7986 3.06144C9.57697 1.91375 10.4462 1.61678 10.83 1.51115C11.5151 1.33388 12.2665 0.960502 12.9867 1.17222C13.0632 1.21931 12.9354 1.35213 12.7991 1.31996C12.7942 1.3191 12.7892 1.31825 12.7842 1.3174C12.7363 1.30968 12.6942 1.30405 12.6355 1.30218C12.5509 1.3038 12.4875 1.31082 12.4305 1.31793C12.2754 1.30803 11.2534 1.54786 10.8817 1.67959C10.5222 1.78109 9.83948 2.2226 9.12807 3.27403C8.93317 3.5658 8.6217 3.97787 8.51641 4.4769C8.51611 4.47825 8.51581 4.4796 8.51552 4.48095C8.41997 4.92041 8.39985 5.36953 8.40167 5.71875C8.40171 5.75992 8.40195 5.79961 8.40221 5.83772C8.40667 6.20453 8.40148 6.43621 8.40315 6.66517C8.40316 6.66739 8.40317 6.66964 8.40319 6.67187C8.40811 6.89549 8.42105 7.11903 8.53992 7.44813C8.62203 7.67264 8.73866 7.94612 8.8959 8.22305C9.20776 8.78956 9.71836 9.34217 10.1512 9.63337C10.1896 9.66009 10.1999 9.71459 10.1736 9.7559C10.1472 9.79715 10.093 9.8087 10.0528 9.78093ZM9.39132 10.6651C7.74577 9.73643 6.76186 7.71867 6.95017 5.89287C6.94938 5.83744 6.94936 5.7793 6.95032 5.71875C6.95561 5.26497 7.02799 4.6806 7.196 4.12234C7.19818 4.11521 7.20038 4.10808 7.20258 4.10095C7.38776 3.4747 7.6911 2.89628 7.94652 2.51136C8.87434 1.13525 9.86366 0.676696 10.3329 0.52536C10.7893 0.395986 10.9083 0.363114 11.0867 0.296722C11.0916 0.295069 11.0965 0.293421 11.1013 0.29178C11.1016 0.29153 11.1019 0.291279 11.1022 0.291029C11.1075 0.286728 11.1122 0.283702 11.1147 0.282242C11.1197 0.27927 11.124 0.277339 11.1256 0.276614C11.1293 0.274936 11.1325 0.273809 11.1336 0.273387C11.1382 0.271663 11.1435 0.269869 11.147 0.268786C11.179 0.258595 11.2817 0.230268 11.3635 0.213691C11.4477 0.196457 11.5091 0.189733 11.5739 0.18386C11.5805 0.183285 11.5871 0.182735 11.5936 0.182197C11.6517 0.177359 11.7149 0.172615 11.8054 0.164631C11.8607 0.159783 11.9074 0.196423 11.9103 0.245222C11.9132 0.294008 11.8726 0.33641 11.8193 0.341122C11.7271 0.349292 11.662 0.354192 11.6051 0.359012C11.5988 0.359537 11.5925 0.360072 11.5862 0.360618C11.526 0.366108 11.4734 0.37219 11.4011 0.386903C11.2977 0.412425 11.222 0.437623 11.1538 0.461356C10.9747 0.527699 10.8415 0.565037 10.3775 0.697205C9.94713 0.839009 9.00541 1.26352 8.09642 2.60577C7.84785 2.97988 7.553 3.54172 7.37313 4.14885C7.371 4.15597 7.36888 4.1631 7.36678 4.17023C7.2034 4.71227 7.13287 5.27886 7.12747 5.71875C7.1265 5.77736 7.12649 5.83362 7.12723 5.88727C7.15191 7.69776 8.10936 9.35053 9.48846 10.5166C9.76271 10.7094 10.0266 10.8655 10.2794 10.9939C11.0242 11.3677 11.6704 11.5199 12.276 11.4909C12.3872 11.4845 12.6436 11.4995 13.0098 11.4803C13.0699 11.4764 13.1337 11.4724 13.2009 11.4682C13.3196 11.4609 13.4498 11.4533 13.5906 11.4449C13.6827 11.4394 13.7792 11.4336 13.8801 11.4275C14.2125 11.4109 14.5826 11.363 14.9729 11.2633C15.0843 11.2348 15.1835 11.2054 15.2763 11.1754C15.6711 11.0378 15.9886 10.9376 16.6836 10.5551C17.5655 10.1146 18.7056 8.87264 19.0564 8.04426C19.2524 7.64427 19.3344 7.40304 19.3959 7.23473C19.4126 7.18754 19.4271 7.14566 19.4398 7.10749C19.473 7.00752 19.497 6.92812 19.5218 6.82372C19.6143 6.42661 19.6448 6.0808 19.6375 5.71875C19.6294 5.39244 19.5905 5.0495 19.4928 4.64206C19.4798 4.5885 19.5066 4.5337 19.5535 4.51929C19.6003 4.50496 19.6503 4.53821 19.6638 4.59361C19.7662 5.01806 19.807 5.37642 19.8151 5.71875C19.8221 6.09203 19.7905 6.45107 19.6947 6.86262C19.6681 6.9751 19.6414 7.06257 19.6065 7.16736C19.5936 7.20613 19.5792 7.24796 19.5629 7.29405C19.5005 7.46459 19.4169 7.71088 19.216 8.12126C18.8551 8.9742 17.6817 10.2536 16.7748 10.7073C16.0649 11.0985 15.7438 11.2 15.3382 11.342C15.2422 11.3731 15.1397 11.4038 15.0236 11.4336C14.6147 11.5386 14.227 11.5885 13.8801 11.6054C13.7835 11.6112 13.6909 11.6167 13.6025 11.622C13.462 11.6304 13.332 11.6381 13.2137 11.6454C13.1411 11.6499 13.0731 11.6541 13.0098 11.6583C12.6393 11.677 12.3978 11.6628 12.3006 11.6688C11.6555 11.7022 10.9609 11.5374 10.1879 11.1465C9.9306 11.0152 9.66484 10.857 9.39132 10.6651ZM18.1053 1.81326C18.145 1.8525 18.1489 1.91374 18.1149 1.94906C18.0809 1.98437 18.0229 1.9816 17.9846 1.94371C17.7816 1.74336 17.6224 1.61457 17.4966 1.51694C17.2618 1.3382 17.1421 1.26208 16.9676 1.14065C16.5153 0.830026 16.0298 0.602665 15.5754 0.455534C14.8598 0.221776 14.2327 0.185962 13.8801 0.178239C13.8624 0.177772 13.8455 0.177283 13.8294 0.176772C13.7833 0.175303 13.7463 0.134397 13.7468 0.0854681C13.7473 0.0365859 13.785 -0.00181264 13.8311 -0.000375211C13.8467 0.00011915 13.863 0.000592947 13.8801 0.00104731C14.2409 0.00882328 14.8841 0.0448197 15.6215 0.28429C16.0914 0.435603 16.5947 0.669933 17.0648 0.992225C17.2395 1.11367 17.3561 1.18781 17.5934 1.36745C17.7233 1.46778 17.89 1.60133 18.1053 1.81326Z" fill="#F8E38F"/>
</svg>
